{"title":"Bicycle.Thieves.1948.REMASTERED.BDRip.x264-VoMiT","uid":14706615,"size":1008929024,"categoryP":"video","categoryS":"hd___movies","magnet":"?xt=urn:btih:418637b3bf24d5f6e304727c7e8b3bc1466031a0&amp;dn=Bicycle.Thieves.1948.REMASTERED.BDRip.x264-VoMiT&amp;tr=udp%3A%2F%2Ftracker.leechers-paradise.org%3A6969&amp;tr=udp%3A%2F%2Fzer0day.ch%3A1337&amp;tr=udp%3A%2F%2Fopen.demonii.com%3A1337&amp;tr=udp%3A%2F%2Ftracker.coppersurfer.tk%3A6969&amp;tr=udp%3A%2F%2Fexodus.desync.com%3A6969","seeders":0,"leechers":1,"uploader":"Horisarte","files":5,"time":1464367931,"description":"http://imdb.com/title/tt0040522/\r\n\r\nVideo\r\nID                                       : 1\r\nFormat                                   : AVC\r\nFormat/Info                              : Advanced Video Codec\r\nFormat profile                           :   \r\nFormat settings, CABAC                   : Yes\r\nFormat settings, ReFrames                : 5 frames\r\nCodec ID                                 : V_MPEG4/ISO/AVC\r\nDuration                                 : 1h 29mn\r\nBit rate                                 : 1 349 Kbps\r\nWidth                                    : 720 pixels\r\nHeight                                   : 526 pixels\r\nDisplay aspect ratio                     : 4:3\r\nFrame rate mode                          : Constant\r\nFrame rate                               : 23.976 (24000/1001) fps\r\nColor space                              : YUV\r\nChroma subsampling                       : 4:2:0\r\nBit depth                                : 8 bits\r\nScan type                                : Progressive\r\nBits/(Pixel*Frame)                       : 0.149\r\nStream size                              : 863 MiB (90%)\r\nWriting library                          : x264 core 148 r2665 a01e339\r\nEncoding settings                        : cabac=1 / ref=5 / deblock=1:-3:-3 / analyse=0x3:0x113 / me=umh / subme=8 / psy=1 / psy_rd=1.00:0.25 / mixed_ref=1 / me_range=24 / chroma_me=1 / trellis=1 / 8x8dct=1 / cqm=0 / deadzone=21,11 / fast_pskip=1 / chroma_qp_offset=-4 / threads=16 / lookahead_threads=2 / sliced_threads=0 / nr=0 / decimate=1 / interlaced=0 / bluray_compat=0 / constrained_intra=0 / bframes=3 / b_pyramid=2 / b_adapt=2 / b_bias=0 / direct=3 / weightb=1 / open_gop=0 / weightp=2 / keyint=240 / keyint_min=24 / scenecut=40 / intra_refresh=0 / rc_lookahead=50 / rc=crf / mbtree=1 / crf=21.0 / qcomp=0.60 / qpmin=0 / qpmax=69 / qpstep=4 / ip_ratio=1.40 / aq=1:0.50\r\nDefault                                  : Yes\r\nForced                                   : No\r\nColor range                              : Limited\r\nMatrix coefficients                      : BT.709\r\n\r\nAudio #1\r\nID                                       : 2\r\nFormat                                   : AAC\r\nFormat/Info                              : Advanced Audio Codec\r\nFormat profile                           : LC\r\nCodec ID                                 : A_AAC\r\nDuration                                 : 1h 29mn\r\nBit rate                                 : 75.2 Kbps\r\nChannel(s)                               : 1 channel\r\nChannel positions                        : Front: C\r\nSampling rate                            : 48.0 KHz\r\nFrame rate                               : 46.875 fps (1024 spf)\r\nCompression mode                         : Lossy\r\nDelay relative to video                  : 9ms\r\nStream size                              : 48.1 MiB (5%)\r\nLanguage                                 : Italian\r\nDefault                                  : Yes\r\nForced                                   : No\r\n\r\nAudio #2\r\nID                                       : 3\r\nFormat                                   : AAC\r\nFormat/Info                              : Advanced Audio Codec\r\nFormat profile                           : LC\r\nCodec ID                                 : A_AAC\r\nDuration                                 : 1h 29mn\r\nBit rate                                 : 74.0 Kbps\r\nChannel(s)                               : 1 channel\r\nChannel positions                        : Front: C\r\nSampling rate                            : 48.0 KHz\r\nFrame rate                               : 46.875 fps (1024 spf)\r\nCompression mode                         : Lossy\r\nDelay relative to video                  : 9ms\r\nStream size                              : 47.3 MiB (5%)\r\nLanguage                                 : English\r\nDefault                                  : No\r\nForced                                   : No\r\n\r\nText\r\nID                                       : 4\r\nFormat                                   : UTF-8\r\nCodec ID                                 : S_TEXT/UTF8\r\nCodec ID/Info                            : UTF-8 Plain Text\r\nDuration                                 : 1h 26mn\r\nBit rate                                 : 36 bps\r\nCount of elements                        : 784\r\nStream size                              : 22.9 KiB (0%)\r\nLanguage                                 : English\r\nDefault                                  : Yes\r\nForced                                   : No\r\n\r\nMenu\r\n00:00:00.000                             : en:00:00:00.000\r\n00:05:30.497                             : en:00:05:30.497\r\n00:11:07.292                             : en:00:11:07.292\r\n00:14:31.079                             : en:00:14:31.079\r\n00:18:07.503                             : en:00:18:07.503\r\n00:22:16.335                             : en:00:22:16.335\r\n00:25:54.261                             : en:00:25:54.261\r\n00:30:24.906                             : en:00:30:24.906\r\n00:35:23.621                             : en:00:35:23.621\r\n00:39:06.094                             : en:00:39:06.094\r\n00:43:09.754                             : en:00:43:09.754\r\n00:46:39.380                             : en:00:46:39.380\r\n00:54:42.696                             : en:00:54:42.696\r\n00:58:28.171                             : en:00:58:28.171\r\n01:04:52.097                             : en:01:04:52.097\r\n01:09:23.159                             : en:01:09:23.159\r\n01:15:43.122                             : en:01:15:43.122\r\n01:20:22.901                             : en:01:20:22.901\r\n01:26:00.113                             : en:01:26:00.113","torrent":{"xt":"urn:btih:418637b3bf24d5f6e304727c7e8b3bc1466031a0","amp;dn":"Bicycle.Thieves.1948.REMASTERED.BDRip.x264-VoMiT","amp;tr":["udp%3A%2F%2Ftracker.leechers-paradise.org%3A6969","udp%3A%2F%2Fzer0day.ch%3A1337","udp%3A%2F%2Fopen.demonii.com%3A1337","udp%3A%2F%2Ftracker.coppersurfer.tk%3A6969","udp%3A%2F%2Fexodus.desync.com%3A6969"],"infoHash":"418637b3bf24d5f6e304727c7e8b3bc1466031a0","infoHashBuffer":{"type":"Buffer","data":[65,134,55,179,191,36,213,246,227,4,114,124,126,139,59,193,70,96,49,160]},"announce":[],"urlList":[]}}